<svg xmlns="http://www.w3.org/2000/svg" viewBox="0 0 61.97 64.27"><defs><style>.cls-1{fill:#ce4959;}</style></defs><title>Asset 7</title><g id="Layer_2" data-name="Layer 2"><g id="레이어_1" data-name="레이어 1"><path class="cls-1" d="M29.06,64.27A15.42,15.42,0,0,1,19.83,61C15.35,57.66,8.62,45.39,8.34,44.87S.79,32.44.13,26.89A14.64,14.64,0,0,1,4.54,14,35.7,35.7,0,0,1,12.46,9a1.66,1.66,0,0,1,.8-.19,1.75,1.75,0,0,1,1.52.87l7.88,13.65A1.77,1.77,0,0,1,22,25.69l-.14.08c-.6.38-1.74,1-3.39,1.95a9.94,9.94,0,0,1-4.35,1.41,98.48,98.48,0,0,0,5.12,9.44,95.37,95.37,0,0,0,5.63,9.18,9.93,9.93,0,0,1,3.41-3.06c2.09-1.24,3-1.72,3.32-1.89l.2-.14a1.81,1.81,0,0,1,2.41.64L42.1,57a1.76,1.76,0,0,1-.65,2.4,35,35,0,0,1-8.25,4.28A13.7,13.7,0,0,1,29.06,64.27ZM13.15,10.86a34.06,34.06,0,0,0-7.23,4.63A12.65,12.65,0,0,0,2.14,26.65c.61,5.12,7.88,17.09,8,17.21S16.91,56.3,21,59.39A12.68,12.68,0,0,0,32.59,61.7a33.54,33.54,0,0,0,7.63-4L32.61,44.57c-.1,0-.84.42-3.29,1.87-2.87,1.7-3.09,3.2-3.09,3.22a1,1,0,0,1-.57.8,1,1,0,0,1-1,0c-1.71-1-5.94-8.57-7.19-10.84S11.78,30,11.72,28a1,1,0,0,1,.46-.88,1,1,0,0,1,1-.07h0s1.54.5,4.34-1.07c1.1-.62,2.57-1.45,3.27-1.89Z"/><path class="cls-1" d="M38.85,41.05h-.28a3.67,3.67,0,0,1-3.4-3.94A13.05,13.05,0,0,0,27.8,24.33a3.69,3.69,0,0,1-1.71-4.92,3.71,3.71,0,0,1,3.32-2.08,3.75,3.75,0,0,1,1.6.37A20.38,20.38,0,0,1,42.52,37.64,3.69,3.69,0,0,1,38.85,41.05ZM29.41,19.36a1.65,1.65,0,0,0-1.5.94,1.66,1.66,0,0,0,.77,2.21,15.06,15.06,0,0,1,8.51,14.74,1.67,1.67,0,0,0,.22,1,1.65,1.65,0,0,0,1.31.82h.13a1.67,1.67,0,0,0,1.65-1.54,18.37,18.37,0,0,0-10.38-18A1.58,1.58,0,0,0,29.41,19.36Z"/><path class="cls-1" d="M48.52,41.63h-.27a3.67,3.67,0,0,1-2.92-1.83,3.62,3.62,0,0,1-.48-2.11,22.49,22.49,0,0,0-12.72-22A3.69,3.69,0,0,1,35.34,9,29.83,29.83,0,0,1,52.19,38.22,3.69,3.69,0,0,1,48.52,41.63ZM33.74,10.69a1.67,1.67,0,0,0-1.57,2.21,1.69,1.69,0,0,0,.84.94,24.53,24.53,0,0,1,13.86,24,1.66,1.66,0,0,0,.21,1,1.68,1.68,0,0,0,1.32.82h.12a1.67,1.67,0,0,0,1.65-1.54A27.8,27.8,0,0,0,34.46,10.86,1.65,1.65,0,0,0,33.74,10.69Z"/><path class="cls-1" d="M58.19,42.21h-.27a3.67,3.67,0,0,1-3.4-3.94A31.93,31.93,0,0,0,36.47,7,3.62,3.62,0,0,1,34.6,4.9a3.68,3.68,0,0,1,.15-2.82A3.73,3.73,0,0,1,38.07,0a3.54,3.54,0,0,1,1.6.37A39.24,39.24,0,0,1,61.86,38.8,3.69,3.69,0,0,1,58.19,42.21ZM38.07,2a1.65,1.65,0,0,0-1.56,2.2,1.59,1.59,0,0,0,.84.94A34,34,0,0,1,56.54,38.41a1.66,1.66,0,0,0,.21,1,1.68,1.68,0,0,0,1.32.82h.12a1.66,1.66,0,0,0,1.65-1.54A37.25,37.25,0,0,0,38.79,2.19,1.64,1.64,0,0,0,38.07,2Z"/><path class="cls-1" d="M38.4,61.1a1,1,0,0,1-.87-.49L28.65,45.67a1,1,0,0,1,1.75-1l8.87,14.94A1,1,0,0,1,38.92,61,1,1,0,0,1,38.4,61.1Z"/><path class="cls-1" d="M18.47,27.56a1,1,0,0,1-.87-.49L8.73,12.14a1,1,0,0,1,1.75-1L19.35,26A1,1,0,0,1,19,27.42,1,1,0,0,1,18.47,27.56Z"/></g></g></svg>