<?xml version="1.0" encoding="UTF-8"?>
<svg id="_레이어_2" data-name="레이어 2" xmlns="http://www.w3.org/2000/svg" viewBox="0 0 43.45 36.11">
  <defs>
    <style>
      .cls-1 {
        fill: #fff;
      }
    </style>
  </defs>
  <g id="_레이어_1-2" data-name="레이어 1">
    <path class="cls-1" d="m42.92,19.82c.04-.07.09-.13.13-.2.04-.07.08-.15.11-.23.02-.04.04-.08.06-.12,0-.02.01-.05.02-.07.03-.08.06-.17.08-.25.02-.07.04-.13.06-.2.02-.08.03-.16.04-.25,0-.07.02-.14.03-.21,0-.08,0-.17,0-.25,0-.07,0-.14,0-.2,0-.09-.02-.17-.03-.26,0-.07-.02-.13-.03-.2-.02-.09-.04-.17-.07-.25-.02-.07-.04-.13-.06-.19-.01-.03-.02-.06-.03-.09-.02-.05-.05-.1-.08-.15-.03-.06-.06-.13-.1-.19-.04-.08-.09-.15-.14-.22-.04-.06-.08-.11-.12-.17-.06-.07-.12-.14-.18-.21-.03-.03-.05-.07-.08-.1L27.65.93c-1.24-1.24-3.25-1.24-4.49,0-1.24,1.24-1.24,3.25,0,4.49l9.45,9.45H3.18c-1.1,0-2.07.55-2.64,1.4C.2,16.79,0,17.4,0,18.06c0,.88.36,1.67.93,2.25.57.58,1.37.93,2.25.93h0s29.43,0,29.43,0l-9.45,9.45c-1.24,1.24-1.24,3.25,0,4.49.62.62,1.44.93,2.25.93s1.63-.31,2.25-.93l14.88-14.88s.06-.07.09-.1c.06-.06.12-.13.17-.2.05-.06.09-.12.13-.18Z"/>
  </g>
</svg>