<svg xmlns="http://www.w3.org/2000/svg" viewBox="0 0 239.58 58.52"><defs><style>.cls-1{font-size:18.69px;font-family:SourceHanSansK-Medium, SourceHanSansK Medium-KSCpc-EUC-H;font-weight:500;letter-spacing:-0.02em;}.cls-1,.cls-2{fill:#71685c;}.cls-3{fill:#e60012;}</style></defs><title>Asset 3</title><g id="Layer_2" data-name="Layer 2"><g id="레이어_1" data-name="레이어 1"><text class="cls-1" transform="translate(70.89 55.71) scale(0.95 1)">혈액관리본부</text><path class="cls-2" d="M91.06,6.8v7.29H87.84V6.8h-4.2V23.57H75.09V9.82H81.2v-3H70.89V24.4a2.18,2.18,0,0,0,2.17,2.19H83.64V34h4.2V17.1h3.22V34h4.19V6.8Z"/><path class="cls-2" d="M109,23.27h-4.19v8.57A2.17,2.17,0,0,0,107,34h16.4V31H109Z"/><path class="cls-2" d="M147.71,34h4.2V25.76a2.18,2.18,0,0,0-2.17-2.18H133.06v3h14.65Z"/><path class="cls-2" d="M115.27,14a6.72,6.72,0,0,0-1.42-4.16h2.32v-3h-6.25V4h-4.2V6.8H99.48v3h2.31A6.78,6.78,0,0,0,100.38,14a7.45,7.45,0,0,0,14.89,0m-10.89,0a3.48,3.48,0,1,1,6.89,0,3.48,3.48,0,1,1-6.89,0"/><polygon class="cls-2" points="122.81 12.65 122.81 6.8 118.61 6.8 118.61 24.84 122.81 24.84 122.81 15.66 126.73 15.66 126.73 12.65 122.81 12.65"/><path class="cls-2" d="M194.94,11.87V9.81h5.39v-3H185.08v3h5.38v2.06c0,3.8-2.5,8.6-6.19,11.16l1.9,2.31A25.82,25.82,0,0,0,192.7,19a25.82,25.82,0,0,0,6.53,6.38l1.9-2.31c-3.69-2.56-6.19-7.36-6.19-11.16"/><polygon class="cls-2" points="207.27 13.33 207.27 6.8 203.08 6.8 203.08 34.02 207.27 34.02 207.27 16.35 211.74 16.35 211.74 13.33 207.27 13.33"/><path class="cls-2" d="M222.63,10.21V6.8h-4.48v3.41a17,17,0,0,1-6.06,13l1.77,2.16a21.54,21.54,0,0,0,6.54-6.64,21.36,21.36,0,0,0,6.52,6.64l1.78-2.16a17,17,0,0,1-6.07-13"/><polygon class="cls-2" points="239.58 13.33 235.11 13.33 235.11 6.8 230.92 6.8 230.92 34.02 235.11 34.02 235.11 16.35 239.58 16.35 239.58 13.33"/><path class="cls-2" d="M175.54,22.76v3H165.8v-3h-4.19v9.17a2.18,2.18,0,0,0,2.17,2.18h15.95V22.76Zm0,8.56H165.8V28.55h9.74Z"/><path class="cls-2" d="M164.33,15.71a17.78,17.78,0,0,0,7,5.61l1.5-2.08c-3.46-2.08-6.22-6.12-6.22-10.31V6.8h-4.48V8.93c0,4.19-2.76,8.23-6.21,10.31l1.5,2.08a17.75,17.75,0,0,0,7-5.61"/><rect class="cls-2" x="175.52" y="6.8" width="4.2" height="14.52"/><path class="cls-2" d="M136.52,16.15a18,18,0,0,0,6.75,5.17l1.46-2.08c-3.15-1.8-6-4.71-6-8.48v-1h5.11v-3H129.17v3h5.11v1c0,3.77-2.82,6.68-6,8.48l1.45,2.08a17.92,17.92,0,0,0,6.75-5.17"/><polygon class="cls-2" points="147.68 6.8 147.68 12.12 142.94 12.12 142.94 15.13 147.68 15.13 147.68 21.95 151.88 21.95 151.88 6.8 147.68 6.8"/><polygon class="cls-3" points="38.11 19.05 38.11 0 19.05 0 19.05 19.05 0 19.05 0 38.12 19.05 38.12 19.05 57.18 38.11 57.18 38.11 38.12 57.19 38.12 57.19 19.05 38.11 19.05"/></g></g></svg>