<svg xmlns="http://www.w3.org/2000/svg" viewBox="0 0 83.56 83.56"><defs><style>.cls-1{fill:#f42e3d;}.cls-2{fill:none;stroke:#f42e3d;stroke-miterlimit:10;stroke-width:2.46px;}</style></defs><title>Asset 4</title><g id="Layer_2" data-name="Layer 2"><g id="레이어_1" data-name="레이어 1"><path class="cls-1" d="M26.42,49.27a16.15,16.15,0,0,0,20.43,2l1.95,2h0l7.33,7.3L58.6,63A1.72,1.72,0,0,0,61,62.59l.75-.74a1.73,1.73,0,0,0,.37-2.35l-.78-.78h0l-1.66-1.66-9.15-9.15a16.15,16.15,0,1,0-24.06,1.36ZM47,47.06a13,13,0,1,1,0-18.41A13,13,0,0,1,47,47.06Z"/><circle class="cls-2" cx="41.78" cy="41.78" r="40.55"/></g></g></svg>